<svg width="121" height="27" viewBox="0 0 121 27" fill="none" xmlns="http://www.w3.org/2000/svg">
<path d="M1.73965 24.9103C0.579884 23.7506 0 22.3564 0 20.7278C0 19.0992 0.579884 17.705 1.73965 16.5452C2.89942 15.3854 4.29361 14.8056 5.92222 14.8056C6.48977 14.8056 7.01413 14.8734 7.49531 15.0091C7.97649 15.1448 8.43917 15.3484 8.88333 15.6199V0H17.7667V5.92222H11.8444V20.7278C11.8444 22.3564 11.2646 23.7506 10.1048 24.9103C8.94502 26.0701 7.55083 26.65 5.92222 26.65C4.29361 26.65 2.89942 26.0701 1.73965 24.9103Z" fill="#2C2416"/>
<path d="M38.0204 7.12895C37.8471 6.81695 37.3097 6.66095 36.4084 6.66095V6.11495H40.6724V6.66095C39.7191 6.66095 39.1731 6.84295 39.0344 7.20695L33.9904 21.325H31.8844L26.7884 7.20695C26.6671 6.84295 26.1124 6.66095 25.1244 6.66095V6.11495H31.7284V6.66095C30.9311 6.66095 30.4284 6.76495 30.2204 6.97295L34.1984 17.867L38.0204 7.12895ZM40.2446 21.325V20.779C41.1806 20.779 41.7266 20.6056 41.8826 20.259V11.445C40.9813 11.3756 40.4353 11.341 40.2446 11.341V10.743C40.574 10.743 41.3713 10.561 42.6366 10.197C43.902 9.81562 44.734 9.62495 45.1326 9.62495V20.259C45.2886 20.6056 45.8346 20.779 46.7706 20.779V21.325H40.2446ZM43.4426 7.96095C43.0266 7.96095 42.602 7.81362 42.1686 7.51895C41.7526 7.20695 41.5446 6.84295 41.5446 6.42695C41.5446 6.06295 41.7353 5.72495 42.1166 5.41295C42.5153 5.10095 42.9313 4.94495 43.3646 4.94495C43.7806 4.94495 44.1966 5.10095 44.6126 5.41295C45.046 5.70762 45.2626 6.07162 45.2626 6.50495C45.2626 6.86895 45.0633 7.20695 44.6646 7.51895C44.2833 7.81362 43.876 7.96095 43.4426 7.96095ZM47.2402 21.325V20.779C48.1762 20.779 48.7222 20.6056 48.8782 20.259V11.445C47.9422 11.3756 47.3962 11.341 47.2402 11.341V10.743C47.5696 10.743 48.3669 10.561 49.6322 10.197C50.8976 9.81562 51.7296 9.62495 52.1282 9.62495V10.717C53.0296 9.98895 53.8876 9.62495 54.7022 9.62495C56.8516 9.62495 57.9262 10.145 57.9262 11.185C57.9262 11.601 57.7962 11.9303 57.5362 12.173C57.2936 12.4156 56.9902 12.537 56.6262 12.537C56.2276 12.537 55.9242 12.433 55.7162 12.225C55.5082 12.017 55.3782 11.783 55.3262 11.523C55.2742 11.263 55.1702 11.029 55.0142 10.821C54.8756 10.613 54.6676 10.509 54.3902 10.509C53.7316 10.509 52.9776 10.873 52.1282 11.601V20.259C52.2842 20.6056 52.8302 20.779 53.7662 20.779V21.325H47.2402ZM62.8285 6.11495V9.88495H65.0645V10.665H62.8285V18.933C62.8285 19.4703 62.9238 19.8863 63.1145 20.181C63.3051 20.4583 63.6605 20.597 64.1805 20.597C64.4925 20.597 64.8045 20.4496 65.1165 20.155C65.4458 19.843 65.6711 19.4183 65.7925 18.881L66.4165 19.193C66.0525 20.7876 65.0125 21.585 63.2965 21.585C61.9445 21.585 60.9565 21.2816 60.3325 20.675C59.7258 20.051 59.4225 19.037 59.4225 17.633V10.665H57.6025V9.88495C58.6251 9.88495 59.5178 9.50362 60.2805 8.74095C61.0431 7.96095 61.4245 7.08562 61.4245 6.11495H62.8285ZM78.9099 19.765C79.8459 19.8343 80.3919 19.869 80.5479 19.869V20.467C80.2185 20.467 79.4212 20.6576 78.1559 21.039C76.8905 21.403 76.0585 21.585 75.6599 21.585V20.831C74.7759 21.3336 73.8919 21.585 73.0079 21.585C69.6625 21.585 67.9899 20.3543 67.9899 17.893V10.951C67.8339 10.6043 67.2879 10.431 66.3519 10.431V9.88495H71.2399V18.075C71.2399 18.439 71.2399 18.725 71.2399 18.933C71.2572 19.1236 71.3005 19.349 71.3699 19.609C71.4392 19.869 71.5345 20.0683 71.6559 20.207C71.7945 20.3456 71.9852 20.467 72.2279 20.571C72.4879 20.6576 72.7999 20.701 73.1639 20.701C74.0132 20.701 74.8452 20.467 75.6599 19.999V10.951C75.5039 10.6043 74.9579 10.431 74.0219 10.431V9.88495H78.9099V19.765ZM84.612 14.877C84.612 16.9223 84.8807 18.4216 85.418 19.375C85.9727 20.3283 86.8133 20.805 87.94 20.805C88.72 20.805 89.318 20.3976 89.734 19.583C90.15 18.751 90.358 17.659 90.358 16.307C90.358 14.1923 90.1067 12.6843 89.604 11.783C89.1187 10.8816 88.2433 10.431 86.978 10.431C86.2327 10.431 85.652 10.8643 85.236 11.731C84.82 12.5976 84.612 13.6463 84.612 14.877ZM87.602 21.585C85.6433 21.585 84.0833 21.013 82.922 19.869C81.778 18.725 81.206 17.2343 81.206 15.397C81.206 13.7503 81.726 12.381 82.766 11.289C83.8233 10.1796 85.3747 9.62495 87.42 9.62495C89.4827 9.62495 91.0513 10.171 92.126 11.263C93.218 12.355 93.764 13.837 93.764 15.709C93.764 17.373 93.244 18.7683 92.204 19.895C91.164 21.0216 89.63 21.585 87.602 21.585ZM99.404 20.545C100.583 20.545 101.172 20.0076 101.172 18.933C101.172 18.6383 100.964 18.3523 100.548 18.075C100.132 17.7803 99.6293 17.4943 99.04 17.217C98.4506 16.9223 97.8613 16.593 97.272 16.229C96.6826 15.865 96.18 15.3883 95.764 14.799C95.348 14.1923 95.14 13.5163 95.14 12.771C95.14 11.8003 95.504 11.0376 96.232 10.483C96.9773 9.91095 97.8613 9.62495 98.884 9.62495C99.4733 9.62495 100.08 9.75495 100.704 10.015C101.328 10.275 101.683 10.405 101.77 10.405C101.978 10.405 102.082 10.2316 102.082 9.88495H102.68L102.94 13.681H102.368C102.195 12.953 101.744 12.2423 101.016 11.549C100.305 10.8556 99.6206 10.509 98.962 10.509C97.7313 10.509 97.116 10.9596 97.116 11.861C97.116 12.173 97.454 12.537 98.13 12.953C98.806 13.3516 99.5426 13.7416 100.34 14.123C101.137 14.5043 101.874 15.0503 102.55 15.761C103.226 16.4716 103.564 17.2516 103.564 18.101C103.564 19.1756 103.157 20.025 102.342 20.649C101.527 21.273 100.479 21.585 99.196 21.585C98.572 21.585 97.9393 21.455 97.298 21.195C96.6566 20.935 96.3013 20.805 96.232 20.805C96.024 20.805 95.92 20.9783 95.92 21.325H95.296L95.036 17.347H95.608C95.7813 18.0403 96.3013 18.751 97.168 19.479C98.052 20.1896 98.7973 20.545 99.404 20.545ZM108.074 14.877C108.074 16.9223 108.343 18.4216 108.88 19.375C109.435 20.3283 110.275 20.805 111.402 20.805C112.182 20.805 112.78 20.3976 113.196 19.583C113.612 18.751 113.82 17.659 113.82 16.307C113.82 14.1923 113.569 12.6843 113.066 11.783C112.581 10.8816 111.705 10.431 110.44 10.431C109.695 10.431 109.114 10.8643 108.698 11.731C108.282 12.5976 108.074 13.6463 108.074 14.877ZM111.064 21.585C109.105 21.585 107.545 21.013 106.384 19.869C105.24 18.725 104.668 17.2343 104.668 15.397C104.668 13.7503 105.188 12.381 106.228 11.289C107.285 10.1796 108.837 9.62495 110.882 9.62495C112.945 9.62495 114.513 10.171 115.588 11.263C116.68 12.355 117.226 13.837 117.226 15.709C117.226 17.373 116.706 18.7683 115.666 19.895C114.626 21.0216 113.092 21.585 111.064 21.585Z" fill="#2C2416"/>
</svg>
